<svg id="Layer_1" data-name="Layer 1" xmlns="http://www.w3.org/2000/svg" viewBox="0 0 205.84 161.89"><defs><style>.cls-1{fill:#fff;}</style></defs><path class="cls-1" d="M187.81,160.83c1.75,1.76,5.08,1.28,7.42-1.06l8.49-8.49c2.34-2.34,2.81-5.66,1.06-7.42s-5.08-1.28-7.43,1.06l-8.48,8.48C186.52,155.75,186.05,159.07,187.81,160.83Z"/><rect class="cls-1" x="175.74" y="123.29" width="10" height="27" transform="translate(-43.79 167.86) rotate(-45)"/><path class="cls-1" d="M146.09,153.05a8.33,8.33,0,0,1,0-5c.47-1.37,4.09-5.48,4.09-5.48l3.64-3.63,14.54-14.55,14.54-14.54,3.64-3.64s4.11-3.68,5.49-4.16a8.2,8.2,0,0,1,5,.07,8.83,8.83,0,0,0-1.44-2.65,10.66,10.66,0,0,0-2.5-2.14,11.47,11.47,0,0,0-7.14-1.49,3.69,3.69,0,0,0-1.77.78c-.54.36-1.11.67-1.61,1.07A17.48,17.48,0,0,0,181.08,99l-.9.91-3.64,3.64L162,118.05l-14.55,14.54-3.63,3.64-.91.91a14.45,14.45,0,0,0-1.25,1.45c-.4.51-.71,1.07-1.08,1.6a4.44,4.44,0,0,0-.82,1.76,11.36,11.36,0,0,0,1.48,7.17,9.61,9.61,0,0,0,2.16,2.51A8.52,8.52,0,0,0,146.09,153.05Z"/><path class="cls-1" d="M67.32,7.82l35.6,35.59h0L67.32,7.82a2.59,2.59,0,0,0-1.06-.66L49.81,2l16.45,5.2A2.59,2.59,0,0,1,67.32,7.82Z"/><path class="cls-1" d="M48.61,14.89l2.49,7.44.06.12-.06-.12Z"/><polygon class="cls-1" points="150.68 122.29 158.46 114.51 150.68 122.29 150.68 122.29"/><polygon class="cls-1" points="166.24 106.73 166.24 106.73 118.48 58.97 118.47 58.97 166.24 106.73"/><polygon class="cls-1" points="49.81 1.96 43.61 0 48.61 14.89 43.61 0 49.81 1.96"/><polygon class="cls-1" points="166.24 106.73 166.24 106.73 158.46 114.51 166.24 106.73"/><path class="cls-1" d="M51.75,23.36a2.74,2.74,0,0,1-.59-.91,2.74,2.74,0,0,0,.59.91L87.36,59h0Z"/><polygon class="cls-1" points="102.92 74.53 150.68 122.29 150.68 122.29 102.92 74.53 102.92 74.53"/><path class="cls-1" d="M8.49,144.92c-2.35-2.34-5.67-2.82-7.43-1.06s-1.28,5.08,1.06,7.42l8.49,8.49c2.34,2.34,5.66,2.82,7.42,1.06s1.28-5.08-1.06-7.43Z"/><rect class="cls-1" x="38.22" y="81.4" width="62.55" height="22" transform="translate(-44.98 76.2) rotate(-45)"/><polygon class="cls-1" points="102.92 43.41 118.47 58.97 118.48 58.97 102.92 43.41 102.92 43.41"/><path class="cls-1" d="M154.09,23.36a2.62,2.62,0,0,0,.64-1L162.22,0,139.58,7.16a2.62,2.62,0,0,0-1.07.66L106.45,39.88,122,55.43Z"/><path class="cls-1" d="M118.48,59,102.92,43.41,67.32,7.82a2.59,2.59,0,0,0-1.06-.66L49.81,2l-6.2-2,5,14.89,2.49,7.44.06.12a2.74,2.74,0,0,0,.59.91L87.36,59l15.56,15.56,47.76,47.76,7.78-7.78,7.78-7.78Z"/><polygon class="cls-1" points="87.36 58.97 87.36 58.97 102.92 74.53 102.92 74.53 87.36 58.97"/><rect class="cls-1" x="11.6" y="131.79" width="27" height="10" transform="translate(-89.37 57.81) rotate(-45)"/><path class="cls-1" d="M65.26,140.19c-.37-.53-.68-1.09-1.08-1.6a15.87,15.87,0,0,0-1.25-1.45l-.91-.91-3.64-3.64L43.84,118.05,29.3,103.51l-3.64-3.64L24.75,99a15.87,15.87,0,0,0-1.45-1.25c-.5-.4-1.07-.71-1.61-1.07a3.73,3.73,0,0,0-1.77-.78,11.47,11.47,0,0,0-7.14,1.49,10.46,10.46,0,0,0-2.5,2.14,8.61,8.61,0,0,0-1.44,2.65,8.17,8.17,0,0,1,5-.07c1.39.48,5.5,4.16,5.5,4.16l3.63,3.64,14.55,14.54L52,139l3.64,3.63s3.62,4.11,4.09,5.48a8.33,8.33,0,0,1,0,5,8.52,8.52,0,0,0,2.69-1.42,9.8,9.8,0,0,0,2.16-2.51A11.28,11.28,0,0,0,66.07,142,4.29,4.29,0,0,0,65.26,140.19Z"/></svg>