<svg id="Layer_1" data-name="Layer 1" xmlns="http://www.w3.org/2000/svg" viewBox="0 0 205.84 161.89"><defs><style>.cls-1{fill:#fff;}</style></defs><path class="cls-1" d="M187.81,160.83c1.75,1.76,5.08,1.28,7.42-1.06l8.49-8.49c2.34-2.34,2.81-5.66,1.06-7.42s-5.08-1.28-7.43,1.06l-8.48,8.48C186.52,155.75,186.05,159.07,187.81,160.83Z"/><path class="cls-1" d="M66.26,7.16,43.61,0,51.1,22.33a2.76,2.76,0,0,0,.65,1l98.93,98.93,15.56-15.56L67.32,7.82A2.59,2.59,0,0,0,66.26,7.16Z"/><rect class="cls-1" x="175.74" y="123.29" width="10" height="27" transform="translate(-43.79 167.86) rotate(-45)"/><path class="cls-1" d="M146.09,153.05a8.33,8.33,0,0,1,0-5c.47-1.37,4.09-5.48,4.09-5.48l3.64-3.63,14.54-14.55,14.54-14.54,3.64-3.64s4.11-3.68,5.49-4.16a8.2,8.2,0,0,1,5,.07,8.83,8.83,0,0,0-1.44-2.65,10.66,10.66,0,0,0-2.5-2.14,11.47,11.47,0,0,0-7.14-1.49,3.69,3.69,0,0,0-1.77.78c-.54.36-1.11.67-1.61,1.07A17.48,17.48,0,0,0,181.08,99l-.9.91-3.64,3.64L162,118.05l-14.55,14.54-3.63,3.64-.91.91a14.45,14.45,0,0,0-1.25,1.45c-.4.51-.71,1.07-1.08,1.6a4.44,4.44,0,0,0-.82,1.76,11.36,11.36,0,0,0,1.48,7.17,9.61,9.61,0,0,0,2.16,2.51A8.52,8.52,0,0,0,146.09,153.05Z"/><path class="cls-1" d="M18,160.83c-1.76,1.76-5.08,1.28-7.42-1.06l-8.49-8.49c-2.34-2.34-2.82-5.66-1.06-7.42s5.08-1.28,7.43,1.06L17,153.4C19.31,155.75,19.79,159.07,18,160.83Z"/><path class="cls-1" d="M139.58,7.16,162.22,0l-7.49,22.33a2.62,2.62,0,0,1-.64,1L55.15,122.29,39.6,106.73,138.51,7.82A2.62,2.62,0,0,1,139.58,7.16Z"/><rect class="cls-1" x="20.1" y="123.29" width="10" height="27" transform="translate(-53.87 251.26) rotate(-135)"/><path class="cls-1" d="M59.75,153.05a8.33,8.33,0,0,0,0-5c-.47-1.37-4.09-5.48-4.09-5.48L52,139,37.48,124.41,22.93,109.87l-3.63-3.64s-4.11-3.68-5.5-4.16a8.17,8.17,0,0,0-5,.07,8.61,8.61,0,0,1,1.44-2.65,10.46,10.46,0,0,1,2.5-2.14,11.47,11.47,0,0,1,7.14-1.49,3.73,3.73,0,0,1,1.77.78c.54.36,1.11.67,1.61,1.07A15.87,15.87,0,0,1,24.75,99l.91.91,3.64,3.64,14.54,14.54,14.54,14.54L62,136.23l.91.91a15.87,15.87,0,0,1,1.25,1.45c.4.51.71,1.07,1.08,1.6a4.29,4.29,0,0,1,.81,1.76,11.29,11.29,0,0,1-1.47,7.17,9.8,9.8,0,0,1-2.16,2.51A8.52,8.52,0,0,1,59.75,153.05Z"/></svg>