<svg id="Layer_1" data-name="Layer 1" xmlns="http://www.w3.org/2000/svg" viewBox="0 0 205.84 161.89"><defs><style>.cls-1{fill:#fff;}</style></defs><path class="cls-1" d="M198.81,136.5H7a7,7,0,0,1-7-7V10.13a7,7,0,0,1,7-7H198.81a7,7,0,0,1,7,7V129.46A7,7,0,0,1,198.81,136.5ZM12.66,123.84H193.18V15.76H12.66Z"/><path class="cls-1" d="M170.89,158.79,148.6,136.5H57.24L35,158.79l-9-8.95,24.15-24.15a6.35,6.35,0,0,1,4.47-1.85h96.6a6.36,6.36,0,0,1,4.47,1.85l24.15,24.15Z"/><polygon class="cls-1" points="132.43 69.8 84.14 41.91 84.14 97.68 132.43 69.8"/></svg>